<svg xmlns="http://www.w3.org/2000/svg" width="83" height="71" viewBox="0 0 83 71">
  <g id="Group_454" data-name="Group 454" transform="translate(-809 -1073)">
    <ellipse id="Ellipse_3" data-name="Ellipse 3" cx="35" cy="35.5" rx="35" ry="35.5" transform="translate(809 1073)" fill="#fff" opacity="0.2"/>
    <circle id="Ellipse_9" data-name="Ellipse 9" cx="6.5" cy="6.5" r="6.5" transform="translate(879 1128)" fill="#fff" opacity="0.2"/>
    <g id="Page-1" transform="translate(822.995 1087.446)">
      <g id="_038---Chairs-and-Table" data-name="038---Chairs-and-Table" transform="translate(0 0)">
        <path id="Shape" d="M25.6,35.908a7.741,7.741,0,0,0,4.654-6.4h3.2a2.459,2.459,0,0,0,0-4.918H23.266V18.961a3.5,3.5,0,0,0,4.918-.694,3.513,3.513,0,0,0,5.62,0,3.513,3.513,0,0,0,6.323-2.108C40.128,7.253,32.259.007,22.578,0h-.025C12.874.006,5,7.252,5,16.159a3.513,3.513,0,0,0,6.323,2.108,3.513,3.513,0,0,0,5.62,0,3.5,3.5,0,0,0,4.918.7v5.627H11.674a2.459,2.459,0,0,0,0,4.918h3.2a7.741,7.741,0,0,0,4.654,6.4,6.327,6.327,0,0,0-3.284,5.542.7.7,0,0,0,.7.7H28.184a.7.7,0,0,0,.7-.7A6.327,6.327,0,0,0,25.6,35.908Zm-.228-17.642a2.108,2.108,0,0,1-2.108-2.108V2.553a22,22,0,0,1,4.215,13.606A2.108,2.108,0,0,1,25.374,18.266Zm5.62,0a2.108,2.108,0,0,1-2.108-2.108,24.083,24.083,0,0,0-3.428-12.94C28.652,5.46,33.1,9.735,33.1,16.159A2.108,2.108,0,0,1,30.994,18.266Zm7.728-2.108a2.108,2.108,0,1,1-4.215,0c0-7.474-5.285-12.182-8.745-14.462C33.146,3.056,38.723,9.023,38.723,16.159ZM8.513,18.266a2.108,2.108,0,0,1-2.108-2.108c0-7.136,5.577-13.1,12.96-14.462-3.459,2.28-8.745,6.988-8.745,14.462a2.108,2.108,0,0,1-2.108,2.108Zm5.62,0a2.108,2.108,0,0,1-2.108-2.108c0-6.407,4.444-10.684,7.637-12.931a24.1,24.1,0,0,0-3.421,12.931,2.108,2.108,0,0,1-2.108,2.108Zm5.62,0a2.108,2.108,0,0,1-2.108-2.108A22,22,0,0,1,21.861,2.553V16.159A2.108,2.108,0,0,1,19.754,18.266ZM10.62,27.048a1.054,1.054,0,0,1,1.054-1.054H33.453a1.054,1.054,0,0,1,0,2.108H11.674A1.054,1.054,0,0,1,10.62,27.048Zm5.662,2.459H28.845a6.323,6.323,0,0,1-12.563,0ZM17.7,40.748a4.918,4.918,0,0,1,9.736,0Z" transform="translate(-1.487 0)" fill="#fff"/>
        <path id="Shape-2" data-name="Shape" d="M12.646,42.349a2.108,2.108,0,0,0-2.108-2.108H4.215V31.108a2.108,2.108,0,1,0-4.215,0V42.349a2.1,2.1,0,0,0,1.845,2.081L.037,49.855a.7.7,0,0,0,1.335.444l1.945-5.842H9.33L11.277,50.3a.7.7,0,0,0,1.335-.444L10.8,44.429a2.1,2.1,0,0,0,1.842-2.081ZM1.405,31.108a.7.7,0,0,1,1.405,0v9.133H1.405Zm9.133,11.943H2.108a.7.7,0,0,1-.7-.7v-.7h9.133a.7.7,0,1,1,0,1.405Z" transform="translate(0 -8.626)" fill="#fff"/>
        <path id="Shape-3" data-name="Shape" d="M52.537,29a2.108,2.108,0,0,0-2.108,2.108v9.133H44.106a2.1,2.1,0,0,0-.263,4.189l-1.808,5.425a.7.7,0,0,0,1.335.444l1.945-5.842h6.014L53.276,50.3a.7.7,0,0,0,1.335-.444L52.8,44.429a2.1,2.1,0,0,0,1.842-2.081V31.108A2.108,2.108,0,0,0,52.537,29Zm-.7,2.108a.7.7,0,0,1,1.405,0v9.133H51.835ZM53.24,42.349a.7.7,0,0,1-.7.7H44.106a.7.7,0,0,1,0-1.405H53.24Z" transform="translate(-12.492 -8.626)" fill="#fff"/>
      </g>
    </g>
  </g>
</svg>
