<svg xmlns="http://www.w3.org/2000/svg" width="83" height="71" viewBox="0 0 83 71">
  <g id="Group_454" data-name="Group 454" transform="translate(-1505 -1073)">
    <ellipse id="Ellipse_6" data-name="Ellipse 6" cx="35" cy="35.5" rx="35" ry="35.5" transform="translate(1505 1073)" fill="#fff" opacity="0.2"/>
    <circle id="Ellipse_12" data-name="Ellipse 12" cx="6.5" cy="6.5" r="6.5" transform="translate(1575 1128)" fill="#fff" opacity="0.2"/>
    <path id="Path_37" data-name="Path 37" d="M342.016,15.2c1.043-5.235.485-10-2.111-12.592S332.548-.547,327.313.5Z" transform="translate(1218.188 1087.445)" fill="#fff"/>
    <path id="Path_38" data-name="Path 38" d="M.592,327.205C-.452,332.44.106,337.2,2.7,339.8c1.792,1.792,4.611,2.623,7.908,2.623a24.3,24.3,0,0,0,4.676-.52Z" transform="translate(1518.464 787.181)" fill="#fff"/>
    <path id="Path_39" data-name="Path 39" d="M39.206,15.9a34.772,34.772,0,0,0-14.3,8.407,34.776,34.776,0,0,0-8.408,14.3l16.8,16.8a34.719,34.719,0,0,0,14.314-8.392,34.775,34.775,0,0,0,8.408-14.3Zm4.913,13.648-2.62,2.62.873.873a1.235,1.235,0,1,1-1.746,1.746l-.873-.873-1.746,1.746.873.873a1.235,1.235,0,0,1-1.746,1.746l-.873-.873-1.746,1.746.873.873a1.235,1.235,0,0,1-1.746,1.746l-.873-.873-2.62,2.62A1.235,1.235,0,1,1,28.4,41.773l2.62-2.62-.873-.873a1.235,1.235,0,1,1,1.746-1.746l.873.873,1.746-1.746-.873-.873a1.235,1.235,0,0,1,1.746-1.746l.873.873,1.746-1.746-.873-.873a1.235,1.235,0,1,1,1.746-1.746l.873.873,2.62-2.62a1.235,1.235,0,0,1,1.746,1.746Z" transform="translate(1503.41 1072.854)" fill="#fff"/>
  </g>
</svg>
