<svg xmlns="http://www.w3.org/2000/svg" width="83" height="71" viewBox="0 0 83 71">
  <g id="Group_454" data-name="Group 454" transform="translate(-1273 -1073)">
    <ellipse id="Ellipse_5" data-name="Ellipse 5" cx="35" cy="35.5" rx="35" ry="35.5" transform="translate(1273 1073)" fill="#fff" opacity="0.2"/>
    <circle id="Ellipse_11" data-name="Ellipse 11" cx="6.5" cy="6.5" r="6.5" transform="translate(1343 1128)" fill="#fff" opacity="0.2"/>
    <g id="wireless-router" transform="translate(1286.705 1088.617)">
      <path id="Path_30" data-name="Path 30" d="M220.21,196.587a1.235,1.235,0,1,0,1.746,1.746,1.22,1.22,0,0,1,1.737,0,1.235,1.235,0,1,0,1.746-1.746,3.689,3.689,0,0,0-5.23,0Z" transform="translate(-201.747 -180.68)" fill="#fff"/>
      <path id="Path_31" data-name="Path 31" d="M105.957,15.5a18.4,18.4,0,0,0-13.1,5.432A1.235,1.235,0,0,0,94.6,22.679a16.043,16.043,0,0,1,22.708,0,1.235,1.235,0,1,0,1.746-1.746A18.4,18.4,0,0,0,105.957,15.5Z" transform="translate(-84.879 -15.5)" fill="#fff"/>
      <path id="Path_32" data-name="Path 32" d="M154.518,81.23a1.235,1.235,0,0,0,0-1.746,13.571,13.571,0,0,0-19.21,0,1.235,1.235,0,1,0,1.746,1.746,11.1,11.1,0,0,1,15.718,0A1.235,1.235,0,0,0,154.518,81.23Z" transform="translate(-123.835 -70.56)" fill="#fff"/>
      <path id="Path_33" data-name="Path 33" d="M189.979,140.716a1.235,1.235,0,0,0,0-1.746,8.84,8.84,0,0,0-12.22,0,1.235,1.235,0,0,0,1.746,1.746,6.307,6.307,0,0,1,8.727,0A1.235,1.235,0,0,0,189.979,140.716Z" transform="translate(-162.791 -126.554)" fill="#fff"/>
      <path id="Path_34" data-name="Path 34" d="M38.45,285.5H3.705A3.709,3.709,0,0,0,0,289.205v7.41a3.709,3.709,0,0,0,3.705,3.705H4.94v1.317a1.235,1.235,0,0,0,2.47,0V300.32H34.745v1.317a1.235,1.235,0,0,0,2.47,0V300.32H38.45a3.709,3.709,0,0,0,3.705-3.705v-7.41A3.709,3.709,0,0,0,38.45,285.5Zm-11.115,8.645a1.235,1.235,0,0,1-2.47,0v-2.47a1.235,1.235,0,0,1,2.47,0Zm4.94,0a1.235,1.235,0,0,1-2.47,0v-2.47a1.235,1.235,0,0,1,2.47,0Zm4.94,0a1.235,1.235,0,0,1-2.47,0v-2.47a1.235,1.235,0,0,1,2.47,0Z" transform="translate(0 -263.27)" fill="#fff"/>
      <path id="Path_35" data-name="Path 35" d="M1.747,75.577A1.234,1.234,0,0,0,1.1,77.2L6.712,90.3H9.4L3.368,76.226a1.232,1.232,0,0,0-1.621-.649Z" transform="translate(-0.916 -70.537)" fill="#fff"/>
      <path id="Path_36" data-name="Path 36" d="M411.658,90.31l5.614-13.1a1.235,1.235,0,1,0-2.27-.972l-6.03,14.071Z" transform="translate(-375.299 -70.55)" fill="#fff"/>
    </g>
  </g>
</svg>
